<mxfile host="app.diagrams.net" modified="2024-07-15T03:30:47.512Z" agent="Mozilla/5.0 (Windows NT 10.0; Win64; x64) AppleWebKit/537.36 (KHTML, like Gecko) Chrome/126.0.0.0 Safari/537.36 Edg/126.0.0.0" etag="N-JZfmONCiXGrm0MztG9" version="24.6.5" type="github">
  <diagram name="第 1 页" id="_B7B0oUs-S5gSMZ17LwN">
    <mxGraphModel dx="1846" dy="705" grid="1" gridSize="10" guides="1" tooltips="1" connect="1" arrows="1" fold="1" page="1" pageScale="1" pageWidth="827" pageHeight="1169" math="0" shadow="0">
      <root>
        <mxCell id="0" />
        <mxCell id="1" parent="0" />
        <mxCell id="XM1wub6FH8FJkrIBR4B5-11" style="edgeStyle=orthogonalEdgeStyle;rounded=0;orthogonalLoop=1;jettySize=auto;html=1;" edge="1" parent="1" source="XM1wub6FH8FJkrIBR4B5-10">
          <mxGeometry relative="1" as="geometry">
            <mxPoint x="570" y="360" as="targetPoint" />
            <Array as="points">
              <mxPoint x="510" y="360" />
              <mxPoint x="510" y="361" />
            </Array>
          </mxGeometry>
        </mxCell>
        <mxCell id="XM1wub6FH8FJkrIBR4B5-12" value="Text" style="edgeLabel;html=1;align=center;verticalAlign=middle;resizable=0;points=[];" vertex="1" connectable="0" parent="XM1wub6FH8FJkrIBR4B5-11">
          <mxGeometry x="0.0165" relative="1" as="geometry">
            <mxPoint as="offset" />
          </mxGeometry>
        </mxCell>
        <mxCell id="XM1wub6FH8FJkrIBR4B5-13" value="完全" style="edgeLabel;html=1;align=center;verticalAlign=middle;resizable=0;points=[];" vertex="1" connectable="0" parent="XM1wub6FH8FJkrIBR4B5-11">
          <mxGeometry x="-0.0166" relative="1" as="geometry">
            <mxPoint x="1" as="offset" />
          </mxGeometry>
        </mxCell>
        <mxCell id="XM1wub6FH8FJkrIBR4B5-10" value="" style="whiteSpace=wrap;html=1;aspect=fixed;" vertex="1" parent="1">
          <mxGeometry x="370" y="320" width="80" height="80" as="geometry" />
        </mxCell>
        <mxCell id="XM1wub6FH8FJkrIBR4B5-14" value="Actor" style="shape=umlActor;verticalLabelPosition=bottom;verticalAlign=top;html=1;outlineConnect=0;" vertex="1" parent="1">
          <mxGeometry x="490" y="280" width="30" height="60" as="geometry" />
        </mxCell>
        <mxCell id="XM1wub6FH8FJkrIBR4B5-15" value="Object" style="html=1;whiteSpace=wrap;" vertex="1" parent="1">
          <mxGeometry x="570" y="330" width="110" height="50" as="geometry" />
        </mxCell>
        <mxCell id="XM1wub6FH8FJkrIBR4B5-39" value="you are so clever" style="text;html=1;align=center;verticalAlign=middle;resizable=0;points=[];autosize=1;fillColor=default;strokeColor=none;gradientColor=default;shadow=1;" vertex="1" parent="1">
          <mxGeometry x="-114" y="104" width="110" height="30" as="geometry" />
        </mxCell>
        <mxCell id="XM1wub6FH8FJkrIBR4B5-16" value="Composite State" style="swimlane;fontStyle=1;align=center;verticalAlign=middle;childLayout=stackLayout;horizontal=1;startSize=30;horizontalStack=0;resizeParent=0;resizeLast=1;container=0;fontColor=#000000;collapsible=0;rounded=1;arcSize=30;strokeColor=#ff0000;fillColor=#ffffc0;swimlaneFillColor=#ffffc0;dropTarget=0;" vertex="1" parent="1">
          <mxGeometry x="330" y="150" width="160" height="60" as="geometry" />
        </mxCell>
        <mxCell id="XM1wub6FH8FJkrIBR4B5-17" value="Subtitle" style="text;html=1;strokeColor=none;fillColor=none;align=center;verticalAlign=middle;spacingLeft=4;spacingRight=4;whiteSpace=wrap;overflow=hidden;rotatable=0;fontColor=#000000;" vertex="1" parent="XM1wub6FH8FJkrIBR4B5-16">
          <mxGeometry y="30" width="160" height="30" as="geometry" />
        </mxCell>
        <mxCell id="XM1wub6FH8FJkrIBR4B5-18" value="" style="edgeStyle=orthogonalEdgeStyle;html=1;verticalAlign=bottom;endArrow=open;endSize=8;strokeColor=#ff0000;rounded=0;" edge="1" source="XM1wub6FH8FJkrIBR4B5-16" parent="1">
          <mxGeometry relative="1" as="geometry">
            <mxPoint x="410" y="320" as="targetPoint" />
          </mxGeometry>
        </mxCell>
        <mxCell id="XM1wub6FH8FJkrIBR4B5-19" value="" style="html=1;shadow=0;dashed=0;align=center;verticalAlign=middle;shape=mxgraph.arrows2.arrow;dy=0.6;dx=40;flipH=1;notch=0;" vertex="1" parent="1">
          <mxGeometry x="260" y="325" width="100" height="70" as="geometry" />
        </mxCell>
        <mxCell id="XM1wub6FH8FJkrIBR4B5-20" value="" style="html=1;shadow=0;dashed=0;align=center;verticalAlign=middle;shape=mxgraph.arrows2.arrow;dy=0.6;dx=40;flipH=1;notch=0;rotation=-90;" vertex="1" parent="1">
          <mxGeometry x="360" y="420" width="100" height="70" as="geometry" />
        </mxCell>
        <mxCell id="XM1wub6FH8FJkrIBR4B5-21" value="" style="shape=mxgraph.arrows2.wedgeArrow;html=1;bendable=0;startWidth=50;fillColor=strokeColor;defaultFillColor=invert;defaultGradientColor=invert;rounded=0;entryX=0;entryY=0;entryDx=0;entryDy=49;entryPerimeter=0;" edge="1" parent="1" target="XM1wub6FH8FJkrIBR4B5-20">
          <mxGeometry width="100" height="100" relative="1" as="geometry">
            <mxPoint x="260" y="500" as="sourcePoint" />
            <mxPoint x="360" y="400" as="targetPoint" />
          </mxGeometry>
        </mxCell>
        <mxCell id="XM1wub6FH8FJkrIBR4B5-22" value="" style="shape=mxgraph.arrows2.wedgeArrowDashed2;html=1;bendable=0;startWidth=50;stepSize=15;rounded=0;entryX=0;entryY=0;entryDx=60;entryDy=70;entryPerimeter=0;" edge="1" parent="1" target="XM1wub6FH8FJkrIBR4B5-20">
          <mxGeometry width="100" height="100" relative="1" as="geometry">
            <mxPoint x="320" y="580" as="sourcePoint" />
            <mxPoint x="420" y="480" as="targetPoint" />
          </mxGeometry>
        </mxCell>
        <mxCell id="XM1wub6FH8FJkrIBR4B5-23" value="Cross-Functional Flowchart" style="shape=table;childLayout=tableLayout;startSize=30;collapsible=0;recursiveResize=0;expand=0;fontSize=16;" vertex="1" parent="1">
          <mxGeometry x="-160" y="40" width="400" height="400" as="geometry" />
        </mxCell>
        <mxCell id="XM1wub6FH8FJkrIBR4B5-24" value="Actor 1" style="shape=tableRow;horizontal=0;swimlaneHead=0;swimlaneBody=0;top=0;left=0;strokeColor=inherit;bottom=0;right=0;dropTarget=0;fontStyle=0;fillColor=none;points=[[0,0.5],[1,0.5]];portConstraint=eastwest;startSize=40;collapsible=0;recursiveResize=0;expand=0;fontSize=16;" vertex="1" parent="XM1wub6FH8FJkrIBR4B5-23">
          <mxGeometry y="30" width="400" height="123" as="geometry" />
        </mxCell>
        <mxCell id="XM1wub6FH8FJkrIBR4B5-25" value="Phase 1" style="swimlane;swimlaneHead=0;swimlaneBody=0;fontStyle=0;strokeColor=inherit;connectable=0;fillColor=none;startSize=40;collapsible=0;recursiveResize=0;expand=0;fontSize=16;" vertex="1" parent="XM1wub6FH8FJkrIBR4B5-24">
          <mxGeometry x="40" width="120" height="123" as="geometry">
            <mxRectangle width="120" height="123" as="alternateBounds" />
          </mxGeometry>
        </mxCell>
        <mxCell id="XM1wub6FH8FJkrIBR4B5-38" value="" style="shape=waypoint;sketch=0;fillStyle=solid;size=6;pointerEvents=1;points=[];fillColor=none;resizable=0;rotatable=0;perimeter=centerPerimeter;snapToPoint=1;" vertex="1" parent="XM1wub6FH8FJkrIBR4B5-25">
          <mxGeometry y="40" width="20" height="20" as="geometry" />
        </mxCell>
        <mxCell id="XM1wub6FH8FJkrIBR4B5-26" value="Phase 2" style="swimlane;swimlaneHead=0;swimlaneBody=0;fontStyle=0;strokeColor=inherit;connectable=0;fillColor=none;startSize=40;collapsible=0;recursiveResize=0;expand=0;fontSize=16;" vertex="1" parent="XM1wub6FH8FJkrIBR4B5-24">
          <mxGeometry x="160" width="120" height="123" as="geometry">
            <mxRectangle width="120" height="123" as="alternateBounds" />
          </mxGeometry>
        </mxCell>
        <mxCell id="XM1wub6FH8FJkrIBR4B5-27" value="Phase 3" style="swimlane;swimlaneHead=0;swimlaneBody=0;fontStyle=0;strokeColor=inherit;connectable=0;fillColor=none;startSize=40;collapsible=0;recursiveResize=0;expand=0;fontSize=16;" vertex="1" parent="XM1wub6FH8FJkrIBR4B5-24">
          <mxGeometry x="280" width="120" height="123" as="geometry">
            <mxRectangle width="120" height="123" as="alternateBounds" />
          </mxGeometry>
        </mxCell>
        <mxCell id="XM1wub6FH8FJkrIBR4B5-28" value="Actor 2" style="shape=tableRow;horizontal=0;swimlaneHead=0;swimlaneBody=0;top=0;left=0;strokeColor=inherit;bottom=0;right=0;dropTarget=0;fontStyle=0;fillColor=none;points=[[0,0.5],[1,0.5]];portConstraint=eastwest;startSize=40;collapsible=0;recursiveResize=0;expand=0;fontSize=16;" vertex="1" parent="XM1wub6FH8FJkrIBR4B5-23">
          <mxGeometry y="153" width="400" height="124" as="geometry" />
        </mxCell>
        <mxCell id="XM1wub6FH8FJkrIBR4B5-29" value="" style="swimlane;swimlaneHead=0;swimlaneBody=0;fontStyle=0;connectable=0;strokeColor=inherit;fillColor=none;startSize=0;collapsible=0;recursiveResize=0;expand=0;fontSize=16;" vertex="1" parent="XM1wub6FH8FJkrIBR4B5-28">
          <mxGeometry x="40" width="120" height="124" as="geometry">
            <mxRectangle width="120" height="124" as="alternateBounds" />
          </mxGeometry>
        </mxCell>
        <mxCell id="XM1wub6FH8FJkrIBR4B5-30" value="" style="swimlane;swimlaneHead=0;swimlaneBody=0;fontStyle=0;connectable=0;strokeColor=inherit;fillColor=none;startSize=0;collapsible=0;recursiveResize=0;expand=0;fontSize=16;" vertex="1" parent="XM1wub6FH8FJkrIBR4B5-28">
          <mxGeometry x="160" width="120" height="124" as="geometry">
            <mxRectangle width="120" height="124" as="alternateBounds" />
          </mxGeometry>
        </mxCell>
        <mxCell id="XM1wub6FH8FJkrIBR4B5-36" value="" style="rhombus;whiteSpace=wrap;html=1;strokeWidth=2;fillWeight=-1;hachureGap=8;fillStyle=cross-hatch;fillColor=#006600;sketch=1;" vertex="1" parent="XM1wub6FH8FJkrIBR4B5-30">
          <mxGeometry y="17" width="120" height="88" as="geometry" />
        </mxCell>
        <mxCell id="XM1wub6FH8FJkrIBR4B5-31" value="" style="swimlane;swimlaneHead=0;swimlaneBody=0;fontStyle=0;connectable=0;strokeColor=inherit;fillColor=none;startSize=0;collapsible=0;recursiveResize=0;expand=0;fontSize=16;" vertex="1" parent="XM1wub6FH8FJkrIBR4B5-28">
          <mxGeometry x="280" width="120" height="124" as="geometry">
            <mxRectangle width="120" height="124" as="alternateBounds" />
          </mxGeometry>
        </mxCell>
        <mxCell id="XM1wub6FH8FJkrIBR4B5-37" value="" style="shape=image;html=1;verticalLabelPosition=bottom;verticalAlign=top;imageAspect=0;image=img/clipart/Gear_128x128.png" vertex="1" parent="XM1wub6FH8FJkrIBR4B5-31">
          <mxGeometry x="22.5" y="28" width="75" height="68" as="geometry" />
        </mxCell>
        <mxCell id="XM1wub6FH8FJkrIBR4B5-32" value="Actor 3" style="shape=tableRow;horizontal=0;swimlaneHead=0;swimlaneBody=0;top=0;left=0;strokeColor=inherit;bottom=0;right=0;dropTarget=0;fontStyle=0;fillColor=none;points=[[0,0.5],[1,0.5]];portConstraint=eastwest;startSize=40;collapsible=0;recursiveResize=0;expand=0;fontSize=16;" vertex="1" parent="XM1wub6FH8FJkrIBR4B5-23">
          <mxGeometry y="277" width="400" height="123" as="geometry" />
        </mxCell>
        <mxCell id="XM1wub6FH8FJkrIBR4B5-33" value="" style="swimlane;swimlaneHead=0;swimlaneBody=0;fontStyle=0;connectable=0;strokeColor=inherit;fillColor=none;startSize=0;collapsible=0;recursiveResize=0;expand=0;fontSize=16;" vertex="1" parent="XM1wub6FH8FJkrIBR4B5-32">
          <mxGeometry x="40" width="120" height="123" as="geometry">
            <mxRectangle width="120" height="123" as="alternateBounds" />
          </mxGeometry>
        </mxCell>
        <mxCell id="XM1wub6FH8FJkrIBR4B5-34" value="" style="swimlane;swimlaneHead=0;swimlaneBody=0;fontStyle=0;connectable=0;strokeColor=inherit;fillColor=none;startSize=0;collapsible=0;recursiveResize=0;expand=0;fontSize=16;" vertex="1" parent="XM1wub6FH8FJkrIBR4B5-32">
          <mxGeometry x="160" width="120" height="123" as="geometry">
            <mxRectangle width="120" height="123" as="alternateBounds" />
          </mxGeometry>
        </mxCell>
        <mxCell id="XM1wub6FH8FJkrIBR4B5-35" value="" style="swimlane;swimlaneHead=0;swimlaneBody=0;fontStyle=0;connectable=0;strokeColor=inherit;fillColor=none;startSize=0;collapsible=0;recursiveResize=0;expand=0;fontSize=16;" vertex="1" parent="XM1wub6FH8FJkrIBR4B5-32">
          <mxGeometry x="280" width="120" height="123" as="geometry">
            <mxRectangle width="120" height="123" as="alternateBounds" />
          </mxGeometry>
        </mxCell>
      </root>
    </mxGraphModel>
  </diagram>
</mxfile>
